<svg width="2077" height="2241" viewBox="0 0 2077 2241" fill="none" xmlns="http://www.w3.org/2000/svg">
<g filter="url(#filter0_f_1616_2572)">
<path d="M1330.5 1120.5C1330.5 1396.92 1482.92 1621 1206.5 1621C930.081 1621 706 1396.92 706 1120.5C706 844.081 930.081 620 1206.5 620C1482.92 620 1330.5 844.081 1330.5 1120.5Z" fill="#3F00B9"/>
</g>
<g filter="url(#filter1_f_1616_2572)">
<circle cx="869" cy="1312" r="449" fill="#FF8993"/>
</g>
<g filter="url(#filter2_f_1616_2572)">
<path d="M940 1406.5C940 1642.6 1239.68 1834 1609.36 1834C1979.04 1834 1537.99 1642.6 1537.99 1406.5C1537.99 1170.4 1979.04 979 1609.36 979C1239.68 979 940 1170.4 940 1406.5Z" fill="#E607B6"/>
</g>
<defs>
<filter id="filter0_f_1616_2572" x="86" y="0" width="1906.42" height="2241" filterUnits="userSpaceOnUse" color-interpolation-filters="sRGB">
<feFlood flood-opacity="0" result="BackgroundImageFix"/>
<feBlend mode="normal" in="SourceGraphic" in2="BackgroundImageFix" result="shape"/>
<feGaussianBlur stdDeviation="310" result="effect1_foregroundBlur_1616_2572"/>
</filter>
<filter id="filter1_f_1616_2572" x="0" y="443" width="1738" height="1738" filterUnits="userSpaceOnUse" color-interpolation-filters="sRGB">
<feFlood flood-opacity="0" result="BackgroundImageFix"/>
<feBlend mode="normal" in="SourceGraphic" in2="BackgroundImageFix" result="shape"/>
<feGaussianBlur stdDeviation="210" result="effect1_foregroundBlur_1616_2572"/>
</filter>
<filter id="filter2_f_1616_2572" x="620" y="659" width="1457" height="1495" filterUnits="userSpaceOnUse" color-interpolation-filters="sRGB">
<feFlood flood-opacity="0" result="BackgroundImageFix"/>
<feBlend mode="normal" in="SourceGraphic" in2="BackgroundImageFix" result="shape"/>
<feGaussianBlur stdDeviation="160" result="effect1_foregroundBlur_1616_2572"/>
</filter>
</defs>
</svg>
